# xmcd CD database file
#
# Track frame offsets:
#	150
#	20742
#	40347
#	60430
#	87187
#	107935
#	126067
#	148942
#	168995
#
# Disc length: 2457 seconds
#
# Revision: 2
# Processed by: cddbd v1.5.2PL0 Copyright (c) Steve Scherf et al.
# Submitted via: CDex 1.51
#
DISCID=7a099709
DTITLE=Greg Phillinganes - Significant Gains
DYEAR=1981
DGENRE=R&B
TTITLE0=Girl Talk
TTITLE1=Baby, I Do Love You
TTITLE2=Takin' It Up All Night
TTITLE3=Forever Now
TTITLE4=Big Man
TTITLE5=I Don't Want To Be The One
TTITLE6=Maxxed Out
TTITLE7=Do It All For Love
TTITLE8=The Call
EXTD=YEAR: 1981
EXTT0=
EXTT1=
EXTT2=
EXTT3=
EXTT4=
EXTT5=
EXTT6=
EXTT7=
EXTT8=
PLAYORDER=
